# xmcd
#
# Track frame offsets: 
#        150
#        15648
#        42851
#        61569
#        82274
#        97734
#        116243
#        134236
#        160755
#        174779
#        194841
#
# Disc length: 2837 seconds
#
# Revision: 0
# Processed by: cddbd v1.5.2PL0 Copyright (c) Steve Scherf et al.
# Submitted via: ExactAudioCopy v0.99pb3
#
DISCID=8f0b130b
DTITLE=Erwin Helfer Trio - Careless Love
DYEAR=2005
DGENRE=Blues
TTITLE0=This Is Better Than I Thought It Was Boogie
TTITLE1=Careless Love
TTITLE2=Paris But I Don't Know Why
TTITLE3=Blue Monk
TTITLE4=On The Sunny Side Of The Street
TTITLE5=Georgia
TTITLE6=Just A Closer Walk With Thee
TTITLE7=Make Me A Pallet On The Floor
TTITLE8=All Of Me
TTITLE9=I've Got It Bad And That Ain't Good
TTITLE10=Jambalaya
EXTD=
EXTT0=
EXTT1=
EXTT2=
EXTT3=
EXTT4=
EXTT5=
EXTT6=
EXTT7=
EXTT8=
EXTT9=
EXTT10=
PLAYORDER=
